<?xml version="1.0" standalone="no"?>
<!DOCTYPE svg PUBLIC "-//W3C//DTD SVG 20010904//EN"
 "http://www.w3.org/TR/2001/REC-SVG-20010904/DTD/svg10.dtd">
<svg version="1.0" xmlns="http://www.w3.org/2000/svg"
 width="203.000000pt" height="278.000000pt" viewBox="0 0 203.000000 278.000000"
 preserveAspectRatio="xMidYMid meet">

<g transform="translate(0.000000,278.000000) scale(0.100000,-0.100000)"
fill="#000000" stroke="none">
<path d="M850 2776 c-3 -3 -64 -12 -135 -20 -156 -18 -227 -34 -405 -91 -108
-34 -283 -104 -298 -120 -3 -3 133 -379 146 -401 7 -12 16 -9 48 17 38 31 192
109 217 109 6 1 30 7 52 15 22 8 94 25 160 37 100 18 158 21 355 22 207 0 249
-3 348 -23 137 -28 251 -64 396 -126 59 -25 116 -45 125 -43 9 2 22 21 29 43
7 22 19 54 27 72 8 17 15 34 15 38 0 4 6 21 14 38 17 39 61 154 70 183 6 19
-3 26 -81 59 -196 84 -408 141 -641 172 -117 16 -432 29 -442 19z m254 -127
c14 -11 26 -28 26 -38 0 -26 -38 -61 -68 -62 -15 -1 -34 -2 -42 -3 -9 0 -17
-15 -20 -36 -5 -32 -8 -35 -42 -38 l-38 -3 0 100 0 101 79 0 c64 0 83 -4 105
-21z m-341 -97 l48 -92 -40 0 c-26 0 -43 5 -49 16 -13 23 -65 14 -77 -13 -7
-18 -53 -38 -63 -28 -1 1 6 36 16 76 11 41 22 86 26 101 6 26 32 38 76 34 8
-1 36 -43 63 -94z m572 18 c0 -74 0 -75 27 -78 28 -3 29 -1 40 108 3 25 26 37
52 27 10 -4 11 -22 4 -79 -11 -93 -29 -112 -101 -105 -27 2 -60 13 -75 24 -24
19 -27 26 -25 79 3 95 8 106 46 102 l32 -3 0 -75z m-907 -16 c12 -8 22 -23 22
-33 0 -28 -37 -69 -76 -83 -29 -10 -34 -16 -29 -33 12 -39 10 -46 -23 -60 -25
-11 -34 -12 -37 -2 -19 49 -53 172 -50 178 3 3 15 9 27 12 13 3 41 12 63 21
51 20 75 20 103 0z m1296 -5 c16 -7 26 -22 30 -43 9 -53 19 -176 14 -176 -25
0 -68 25 -68 40 0 10 -13 23 -31 30 -25 11 -33 11 -45 -2 -16 -16 -64 -13 -64
3 0 17 112 159 126 159 7 0 24 -5 38 -11z"/>
<path d="M995 2620 c-4 -7 -3 -16 3 -22 14 -14 47 -6 47 12 0 18 -40 26 -50
10z"/>
<path d="M667 2574 c-13 -13 -7 -44 8 -44 16 0 17 5 6 33 -3 10 -10 15 -14 11z"/>
<path d="M338 2509 c-21 -12 -24 -39 -5 -39 22 0 51 26 43 38 -9 14 -16 15
-38 1z"/>
<path d="M1671 2471 c-7 -13 -8 -22 -1 -26 14 -9 29 2 26 20 -4 25 -14 28 -25
6z"/>
<path d="M946 2094 c-82 -51 -150 -68 -256 -62 -66 4 -88 11 -169 52 -52 25
-96 45 -98 42 -3 -2 -8 -33 -13 -68 -14 -116 -73 -202 -193 -281 -31 -21 -57
-42 -57 -46 0 -4 11 -21 25 -37 45 -52 85 -147 99 -235 7 -46 10 -86 6 -89 -4
-3 -10 -32 -14 -64 -4 -33 -10 -64 -15 -70 -4 -6 -14 -33 -21 -61 -7 -27 -16
-54 -20 -60 -4 -5 -24 -57 -45 -115 -35 -97 -38 -113 -37 -210 0 -123 19 -187
80 -278 100 -146 294 -248 512 -267 98 -9 159 -28 195 -64 39 -36 65 -72 65
-87 0 -10 21 -24 35 -24 2 0 7 16 11 35 3 19 9 35 14 35 4 0 24 15 45 33 45
38 103 63 171 72 135 18 304 66 304 86 0 8 44 24 75 28 21 2 97 81 92 95 -3 8
1 17 9 20 8 3 14 12 14 21 0 8 4 15 9 15 5 0 31 43 57 95 26 52 51 95 56 95 4
0 8 36 8 80 0 56 -4 79 -12 77 -15 -3 -29 56 -26 113 1 36 -8 64 -45 140 -79
157 -93 229 -70 345 19 89 48 148 121 238 12 16 22 32 22 37 0 4 -24 24 -52
43 -135 89 -195 173 -209 289 -4 33 -10 62 -13 66 -4 3 -19 -2 -34 -11 -15
-10 -54 -32 -87 -50 -58 -31 -64 -32 -175 -32 -104 0 -120 3 -170 27 -30 15
-70 38 -89 52 -19 14 -35 26 -35 25 -1 0 -32 -21 -70 -45z m102 -23 c52 -36
115 -63 182 -77 58 -12 80 -12 147 0 44 8 103 26 134 42 30 16 57 30 61 32 3
2 12 -23 18 -55 7 -32 21 -75 31 -95 11 -21 19 -39 19 -42 0 -4 -179 -161
-223 -195 -15 -12 -20 -11 -40 7 -44 40 -154 92 -242 113 -216 52 -436 -16
-591 -183 -119 -127 -168 -250 -168 -418 -1 -121 14 -189 59 -280 l33 -66
-130 -113 c-77 -67 -134 -109 -139 -104 -5 5 -13 43 -19 85 -12 98 -1 166 51
310 81 223 91 265 92 373 1 113 -14 163 -76 257 -21 30 -37 58 -37 60 0 3 22
20 49 37 55 36 131 113 154 157 8 16 20 56 28 89 7 33 13 61 14 63 2 2 18 -6
37 -17 86 -52 243 -77 335 -55 32 8 132 55 166 79 27 19 24 19 55 -4z m-48
-309 c0 -5 -8 -13 -18 -18 -10 -5 -69 -47 -130 -94 -88 -66 -112 -90 -112
-108 0 -21 -4 -24 -27 -19 -21 4 -46 -9 -125 -66 -54 -38 -103 -76 -109 -83
-8 -9 1 -49 31 -146 46 -144 53 -158 81 -158 19 0 19 -1 3 -25 -19 -29 -21
-18 38 -207 l30 -98 158 0 c152 0 158 1 174 23 l16 22 16 -22 c16 -22 22 -23
164 -23 106 0 150 4 157 13 6 6 29 68 51 136 l41 124 -19 27 -20 28 30 5 c27
6 31 13 71 137 23 71 46 130 50 130 4 0 11 -30 15 -67 20 -193 -35 -359 -161
-485 -59 -59 -93 -84 -145 -109 -186 -89 -349 -88 -528 2 -184 93 -311 298
-312 503 -1 225 129 432 330 527 91 44 250 76 250 51z m135 -12 c128 -33 241
-106 315 -204 43 -57 95 -155 86 -163 -3 -3 -50 29 -106 70 -89 67 -105 76
-132 70 -29 -6 -31 -5 -25 19 6 22 -6 33 -123 119 -71 52 -129 97 -129 102 -1
12 31 8 114 -13z m-181 -282 c22 -30 20 -65 -4 -95 -11 -14 -20 -38 -20 -53 0
-15 9 -39 20 -53 11 -14 20 -30 20 -36 0 -6 7 -19 15 -28 8 -10 44 -56 81
-103 36 -47 73 -94 83 -105 35 -41 101 -132 101 -138 0 -24 -34 5 -90 76 -36
45 -98 122 -138 171 -44 52 -71 94 -68 103 3 8 1 11 -4 8 -6 -4 -27 3 -46 14
-58 35 -136 23 -192 -29 -32 -30 -42 -24 -42 23 1 84 78 195 170 242 58 31 94
32 114 3z m249 -31 c-3 -20 -11 -37 -18 -37 -7 0 -15 -11 -17 -25 -3 -14 -2
-25 3 -25 17 0 39 13 39 24 1 15 70 47 70 32 0 -17 -36 -67 -42 -60 -4 3 -11
-4 -18 -15 -9 -18 -8 -21 11 -21 12 0 27 6 33 14 6 8 27 17 46 21 l34 8 -29
-35 c-17 -19 -33 -30 -36 -25 -4 5 -15 -2 -24 -17 -10 -15 -24 -25 -31 -22 -7
3 -22 -6 -33 -19 -18 -24 -39 -35 -26 -15 3 6 -1 18 -10 27 -15 15 -18 14 -43
-11 -15 -14 -22 -26 -15 -26 6 0 16 7 23 15 14 17 30 20 30 5 0 -5 -24 -23
-52 -40 -45 -25 -55 -27 -67 -15 -12 12 -8 21 24 65 31 42 35 54 24 61 -11 8
-8 14 16 34 17 14 24 25 18 25 -22 0 -14 16 12 28 14 6 25 17 25 24 0 12 51
70 56 65 2 -2 1 -20 -3 -40z m-265 -272 c-3 -3 -9 2 -12 12 -6 14 -5 15 5 6 7
-7 10 -15 7 -18z m12 -136 c-27 -43 -47 -85 -44 -92 6 -18 -46 -107 -63 -107
-7 0 -13 5 -13 11 0 5 -4 8 -9 4 -5 -3 -12 -1 -16 4 -6 11 61 111 75 111 4 0
17 15 28 33 11 19 27 47 37 63 12 19 1 12 -34 -23 -28 -29 -51 -57 -51 -63 0
-14 -80 -100 -92 -100 -6 0 -8 7 -4 15 3 9 0 15 -9 15 -8 0 -15 4 -15 9 0 11
80 81 93 81 11 0 118 102 113 107 -6 6 -120 -76 -129 -92 -8 -15 -90 -75 -102
-75 -3 0 -3 9 0 20 5 14 2 20 -9 20 -9 0 -16 5 -16 10 0 6 5 10 10 10 6 0 28
12 50 26 22 15 45 24 52 22 7 -3 47 18 88 47 67 46 77 50 92 37 16 -13 13 -20
-32 -93z m204 -125 c3 -8 2 -12 -4 -9 -6 3 -10 10 -10 16 0 14 7 11 14 -7z"/>
<path d="M1137 1330 c-3 -13 0 -20 8 -20 21 0 27 16 11 29 -11 9 -15 7 -19 -9z"/>
<path d="M1180 1285 c0 -9 6 -12 15 -9 8 4 12 10 9 15 -8 14 -24 10 -24 -6z"/>
<path d="M1094 1268 c-4 -7 -14 -24 -23 -38 -12 -20 -8 -19 22 9 20 19 37 36
37 38 0 9 -30 1 -36 -9z"/>
</g>
</svg>
